<?xml version="1.0" standalone="no"?>
<!DOCTYPE svg PUBLIC "-//W3C//DTD SVG 20010904//EN"
 "http://www.w3.org/TR/2001/REC-SVG-20010904/DTD/svg10.dtd">
<svg version="1.0" xmlns="http://www.w3.org/2000/svg"
 width="260.000000pt" height="260.000000pt" viewBox="0 0 260.000000 260.000000"
 preserveAspectRatio="xMidYMid meet">
<metadata>
Created by potrace 1.11, written by Peter Selinger 2001-2013
</metadata>
<g transform="translate(0.000000,260.000000) scale(0.100000,-0.100000)"
fill="#000000" stroke="none">
<path d="M1145 2590 c-98 -13 -248 -52 -336 -89 -407 -169 -689 -513 -785
-956 -24 -111 -24 -379 0 -490 114 -527 489 -907 1011 -1026 143 -32 387 -32
530 0 522 119 897 499 1011 1026 24 111 24 379 0 490 -114 527 -495 913 -1010
1024 -114 25 -314 35 -421 21z m393 -106 c236 -48 438 -158 613 -333 175 -175
281 -371 335 -616 24 -110 24 -360 0 -470 -54 -245 -160 -441 -335 -616 -175
-175 -371 -281 -616 -335 -110 -24 -360 -24 -470 0 -245 54 -441 160 -616 335
-175 175 -281 371 -335 616 -24 110 -24 360 0 470 54 245 160 441 335 616 198
198 434 315 707 349 93 12 286 4 382 -16z"/>
<path d="M1136 2380 c-427 -68 -782 -388 -891 -805 -35 -134 -43 -311 -21
-448 54 -328 251 -609 548 -781 l47 -27 5 43 c3 24 10 151 16 283 6 132 11
259 13 283 l2 43 -59 24 c-96 39 -165 118 -211 240 -27 72 -36 123 -39 220 -7
248 179 486 381 486 225 1 413 -253 390 -526 -20 -222 -112 -370 -268 -428
l-46 -18 4 -47 c4 -58 33 -629 33 -659 0 -33 84 -48 270 -47 130 1 169 5 245
25 l90 24 12 235 c6 129 13 274 16 322 l6 87 -64 30 c-80 37 -152 108 -161
158 -17 92 28 753 57 831 7 19 15 23 41 20 l33 -3 3 -367 2 -368 30 0 30 0 0
371 0 370 38 -3 37 -3 3 -367 2 -368 30 0 30 0 0 370 0 370 40 0 40 0 0 -370
0 -370 30 0 30 0 2 368 3 367 27 3 c34 4 30 23 73 -378 23 -210 27 -434 10
-485 -18 -51 -104 -130 -167 -153 l-48 -17 1 -75 c0 -41 6 -166 12 -278 l12
-203 73 51 c206 144 360 367 428 615 25 91 27 116 28 275 0 160 -3 183 -28
275 -105 384 -402 680 -781 780 -79 21 -129 27 -240 30 -77 2 -166 0 -199 -5z"/>
<path d="M680 1599 c-31 -51 -50 -127 -51 -205 -2 -86 34 -182 93 -249 34 -38
83 -75 102 -75 2 0 -15 29 -39 64 -84 125 -115 289 -84 436 13 63 7 73 -21 29z"/>
</g>
</svg>
